
<svg width="760" height="410" viewBox="0 0 760 410" xmlns="http://www.w3.org/2000/svg">
  <rect width="760" height="410" fill="#0B0B0F"/>

  <!-- Languages -->
  <rect x="24" y="24" width="140" height="32" rx="16" fill="#38BDF8"/>
  <text x="94" y="45" font-family="Arial, Helvetica, sans-serif" font-size="13" font-weight="700" fill="#0B1320" text-anchor="middle">LANGUAGES</text>
  <rect x="180" y="24" width="104" height="32" rx="8" fill="#16161A" stroke="#38BDF8" stroke-width="1.2"/>
  <text x="192" y="45" font-family="Arial, Helvetica, sans-serif" font-size="13" fill="#E5E5E5">TypeScript</text>
  <rect x="294" y="24" width="70" height="32" rx="8" fill="#16161A" stroke="#38BDF8" stroke-width="1.2"/>
  <text x="306" y="45" font-family="Arial, Helvetica, sans-serif" font-size="13" fill="#E5E5E5">Python</text>
  <rect x="374" y="24" width="50" height="32" rx="8" fill="#16161A" stroke="#38BDF8" stroke-width="1.2"/>
  <text x="386" y="45" font-family="Arial, Helvetica, sans-serif" font-size="13" fill="#E5E5E5">PHP</text>
  <rect x="434" y="24" width="98" height="32" rx="8" fill="#16161A" stroke="#38BDF8" stroke-width="1.2"/>
  <text x="446" y="45" font-family="Arial, Helvetica, sans-serif" font-size="13" fill="#E5E5E5">JavaScript</text>
  <rect x="542" y="24" width="50" height="32" rx="8" fill="#16161A" stroke="#38BDF8" stroke-width="1.2"/>
  <text x="554" y="45" font-family="Arial, Helvetica, sans-serif" font-size="13" fill="#E5E5E5">SQL</text>

  <!-- Frontend -->
  <rect x="24" y="90" width="140" height="32" rx="16" fill="#F59E0B"/>
  <text x="94" y="111" font-family="Arial, Helvetica, sans-serif" font-size="13" font-weight="700" fill="#1A0F00" text-anchor="middle">FRONTEND</text>
  <rect x="180" y="90" width="76" height="32" rx="8" fill="#16161A" stroke="#F59E0B" stroke-width="1.2"/>
  <text x="192" y="111" font-family="Arial, Helvetica, sans-serif" font-size="13" fill="#E5E5E5">Next.js</text>
  <rect x="266" y="90" width="62" height="32" rx="8" fill="#16161A" stroke="#F59E0B" stroke-width="1.2"/>
  <text x="278" y="111" font-family="Arial, Helvetica, sans-serif" font-size="13" fill="#E5E5E5">React</text>
  <rect x="338" y="90" width="84" height="32" rx="8" fill="#16161A" stroke="#F59E0B" stroke-width="1.2"/>
  <text x="350" y="111" font-family="Arial, Helvetica, sans-serif" font-size="13" fill="#E5E5E5">Tailwind</text>
  <rect x="432" y="90" width="84" height="32" rx="8" fill="#16161A" stroke="#F59E0B" stroke-width="1.2"/>
  <text x="444" y="111" font-family="Arial, Helvetica, sans-serif" font-size="13" fill="#E5E5E5">Three.js</text>
  <rect x="526" y="90" width="56" height="32" rx="8" fill="#16161A" stroke="#F59E0B" stroke-width="1.2"/>
  <text x="538" y="111" font-family="Arial, Helvetica, sans-serif" font-size="13" fill="#E5E5E5">GSAP</text>
  <rect x="592" y="90" width="120" height="32" rx="8" fill="#16161A" stroke="#F59E0B" stroke-width="1.2"/>
  <text x="604" y="111" font-family="Arial, Helvetica, sans-serif" font-size="13" fill="#E5E5E5">Framer Motion</text>

  <!-- Backend -->
  <rect x="24" y="156" width="140" height="32" rx="16" fill="#10B981"/>
  <text x="94" y="177" font-family="Arial, Helvetica, sans-serif" font-size="13" font-weight="700" fill="#052E1C" text-anchor="middle">BACKEND</text>
  <rect x="180" y="156" width="76" height="32" rx="8" fill="#16161A" stroke="#10B981" stroke-width="1.2"/>
  <text x="192" y="177" font-family="Arial, Helvetica, sans-serif" font-size="13" fill="#E5E5E5">FastAPI</text>
  <rect x="266" y="156" width="76" height="32" rx="8" fill="#16161A" stroke="#10B981" stroke-width="1.2"/>
  <text x="278" y="177" font-family="Arial, Helvetica, sans-serif" font-size="13" fill="#E5E5E5">Laravel</text>
  <rect x="352" y="156" width="76" height="32" rx="8" fill="#16161A" stroke="#10B981" stroke-width="1.2"/>
  <text x="364" y="177" font-family="Arial, Helvetica, sans-serif" font-size="13" fill="#E5E5E5">Node.js</text>

  <!-- AI -->
  <rect x="24" y="222" width="140" height="32" rx="16" fill="#6366F1"/>
  <text x="94" y="243" font-family="Arial, Helvetica, sans-serif" font-size="13" font-weight="700" fill="#FFFFFF" text-anchor="middle">AI</text>
  <rect x="180" y="222" width="90" height="32" rx="8" fill="#16161A" stroke="#6366F1" stroke-width="1.2"/>
  <text x="192" y="243" font-family="Arial, Helvetica, sans-serif" font-size="13" fill="#E5E5E5">LangChain</text>
  <rect x="280" y="222" width="84" height="32" rx="8" fill="#16161A" stroke="#6366F1" stroke-width="1.2"/>
  <text x="292" y="243" font-family="Arial, Helvetica, sans-serif" font-size="13" fill="#E5E5E5">Groq API</text>
  <rect x="374" y="222" width="120" height="32" rx="8" fill="#16161A" stroke="#6366F1" stroke-width="1.2"/>
  <text x="386" y="243" font-family="Arial, Helvetica, sans-serif" font-size="13" fill="#E5E5E5">Vercel AI SDK</text>

  <!-- Database -->
  <rect x="24" y="288" width="140" height="32" rx="16" fill="#14B8A6"/>
  <text x="94" y="309" font-family="Arial, Helvetica, sans-serif" font-size="13" font-weight="700" fill="#042F2A" text-anchor="middle">DATABASE</text>
  <rect x="180" y="288" width="98" height="32" rx="8" fill="#16161A" stroke="#14B8A6" stroke-width="1.2"/>
  <text x="192" y="309" font-family="Arial, Helvetica, sans-serif" font-size="13" fill="#E5E5E5">PostgreSQL</text>
  <rect x="288" y="288" width="62" height="32" rx="8" fill="#16161A" stroke="#14B8A6" stroke-width="1.2"/>
  <text x="300" y="309" font-family="Arial, Helvetica, sans-serif" font-size="13" fill="#E5E5E5">MySQL</text>
  <rect x="360" y="288" width="84" height="32" rx="8" fill="#16161A" stroke="#14B8A6" stroke-width="1.2"/>
  <text x="372" y="309" font-family="Arial, Helvetica, sans-serif" font-size="13" fill="#E5E5E5">Supabase</text>
  <rect x="454" y="288" width="76" height="32" rx="8" fill="#16161A" stroke="#14B8A6" stroke-width="1.2"/>
  <text x="466" y="309" font-family="Arial, Helvetica, sans-serif" font-size="13" fill="#E5E5E5">Amplify</text>

  <!-- Analytics -->
  <rect x="24" y="354" width="140" height="32" rx="16" fill="#EC4899"/>
  <text x="94" y="375" font-family="Arial, Helvetica, sans-serif" font-size="13" font-weight="700" fill="#FFFFFF" text-anchor="middle">ANALYTICS</text>
  <rect x="180" y="354" width="84" height="32" rx="8" fill="#16161A" stroke="#EC4899" stroke-width="1.2"/>
  <text x="192" y="375" font-family="Arial, Helvetica, sans-serif" font-size="13" fill="#E5E5E5">Power BI</text>
  <rect x="274" y="354" width="50" height="32" rx="8" fill="#16161A" stroke="#EC4899" stroke-width="1.2"/>
  <text x="286" y="375" font-family="Arial, Helvetica, sans-serif" font-size="13" fill="#E5E5E5">GA4</text>
  <rect x="334" y="354" width="98" height="32" rx="8" fill="#16161A" stroke="#EC4899" stroke-width="1.2"/>
  <text x="346" y="375" font-family="Arial, Helvetica, sans-serif" font-size="13" fill="#E5E5E5">MS Clarity</text>
</svg>
