
<svg width="1200" height="500" viewBox="0 0 1200 500" xmlns="http://www.w3.org/2000/svg">
  <rect width="1200" height="500" fill="#0B0B0F"/>

  <!-- Featured: Day One -->
  <rect x="24" y="24" width="1152" height="140" rx="10" fill="#16161A" stroke="#27272A" stroke-width="1"/>
  <rect x="24" y="24" width="4" height="140" fill="#F59E0B"/>
  <rect x="50" y="40" width="84" height="22" rx="11" fill="#F59E0B"/>
  <text x="92" y="55" font-family="Arial, Helvetica, sans-serif" font-size="11" font-weight="700" fill="#1A0F00" text-anchor="middle" letter-spacing="0.5">BUILDING</text>
  <text x="50" y="84" font-family="Arial, Helvetica, sans-serif" font-size="22" font-weight="700" fill="#FAFAFA">Day One</text>
  <text x="50" y="108" font-family="Arial, Helvetica, sans-serif" font-size="13" fill="#A1A1AA">The knowledge layer for engineering teams — AI onboarding &amp; decision history</text>
  <rect x="50" y="120" width="70" height="22" rx="6" fill="#1F1F23" stroke="#2F2F35" stroke-width="1"/>
  <text x="85" y="135" font-family="Arial, Helvetica, sans-serif" font-size="11" fill="#D4D4D8" text-anchor="middle">Next.js</text>
  <rect x="128" y="120" width="70" height="22" rx="6" fill="#1F1F23" stroke="#2F2F35" stroke-width="1"/>
  <text x="163" y="135" font-family="Arial, Helvetica, sans-serif" font-size="11" fill="#D4D4D8" text-anchor="middle">FastAPI</text>
  <rect x="206" y="120" width="86" height="22" rx="6" fill="#1F1F23" stroke="#2F2F35" stroke-width="1"/>
  <text x="249" y="135" font-family="Arial, Helvetica, sans-serif" font-size="11" fill="#D4D4D8" text-anchor="middle">LangChain</text>
  <rect x="300" y="120" width="54" height="22" rx="6" fill="#1F1F23" stroke="#2F2F35" stroke-width="1"/>
  <text x="327" y="135" font-family="Arial, Helvetica, sans-serif" font-size="11" fill="#D4D4D8" text-anchor="middle">Groq</text>
  <rect x="362" y="120" width="80" height="22" rx="6" fill="#1F1F23" stroke="#2F2F35" stroke-width="1"/>
  <text x="402" y="135" font-family="Arial, Helvetica, sans-serif" font-size="11" fill="#D4D4D8" text-anchor="middle">Supabase</text>

  <!-- Row 1, Col 1: OneTap -->
  <rect x="24" y="188" width="564" height="130" rx="10" fill="#16161A" stroke="#27272A" stroke-width="1"/>
  <rect x="24" y="188" width="4" height="130" fill="#10B981"/>
  <rect x="50" y="204" width="78" height="20" rx="10" fill="#10B981"/>
  <text x="89" y="218" font-family="Arial, Helvetica, sans-serif" font-size="10.5" font-weight="700" fill="#03210F" text-anchor="middle" letter-spacing="0.5">SHIPPED</text>
  <text x="50" y="246" font-family="Arial, Helvetica, sans-serif" font-size="18" font-weight="700" fill="#FAFAFA">OneTap</text>
  <text x="50" y="268" font-family="Arial, Helvetica, sans-serif" font-size="12.5" fill="#A1A1AA">Multi-tenant HOA management, AI-assisted heatmaps &amp; reservations</text>
  <rect x="50" y="284" width="66" height="20" rx="6" fill="#1F1F23" stroke="#2F2F35" stroke-width="1"/>
  <text x="83" y="298" font-family="Arial, Helvetica, sans-serif" font-size="10.5" fill="#D4D4D8" text-anchor="middle">Next.js</text>
  <rect x="124" y="284" width="54" height="20" rx="6" fill="#1F1F23" stroke="#2F2F35" stroke-width="1"/>
  <text x="151" y="298" font-family="Arial, Helvetica, sans-serif" font-size="10.5" fill="#D4D4D8" text-anchor="middle">MySQL</text>
  <rect x="186" y="284" width="74" height="20" rx="6" fill="#1F1F23" stroke="#2F2F35" stroke-width="1"/>
  <text x="223" y="298" font-family="Arial, Helvetica, sans-serif" font-size="10.5" fill="#D4D4D8" text-anchor="middle">REST API</text>

  <!-- Row 1, Col 2: Scentora -->
  <rect x="612" y="188" width="564" height="130" rx="10" fill="#16161A" stroke="#27272A" stroke-width="1"/>
  <rect x="612" y="188" width="4" height="130" fill="#10B981"/>
  <rect x="638" y="204" width="78" height="20" rx="10" fill="#10B981"/>
  <text x="677" y="218" font-family="Arial, Helvetica, sans-serif" font-size="10.5" font-weight="700" fill="#03210F" text-anchor="middle" letter-spacing="0.5">SHIPPED</text>
  <text x="638" y="246" font-family="Arial, Helvetica, sans-serif" font-size="18" font-weight="700" fill="#FAFAFA">Scentora</text>
  <text x="638" y="268" font-family="Arial, Helvetica, sans-serif" font-size="12.5" fill="#A1A1AA">Fragrance e-commerce platform, built as a school project</text>
  <rect x="638" y="284" width="66" height="20" rx="6" fill="#1F1F23" stroke="#2F2F35" stroke-width="1"/>
  <text x="671" y="298" font-family="Arial, Helvetica, sans-serif" font-size="10.5" fill="#D4D4D8" text-anchor="middle">Laravel</text>
  <rect x="712" y="284" width="42" height="20" rx="6" fill="#1F1F23" stroke="#2F2F35" stroke-width="1"/>
  <text x="733" y="298" font-family="Arial, Helvetica, sans-serif" font-size="10.5" fill="#D4D4D8" text-anchor="middle">PHP</text>
  <rect x="762" y="284" width="74" height="20" rx="6" fill="#1F1F23" stroke="#2F2F35" stroke-width="1"/>
  <text x="799" y="298" font-family="Arial, Helvetica, sans-serif" font-size="10.5" fill="#D4D4D8" text-anchor="middle">Livewire</text>

  <!-- Row 2, Col 1: BantayKo -->
  <rect x="24" y="342" width="564" height="130" rx="10" fill="#16161A" stroke="#27272A" stroke-width="1"/>
  <rect x="24" y="342" width="4" height="130" fill="#10B981"/>
  <rect x="50" y="358" width="78" height="20" rx="10" fill="#10B981"/>
  <text x="89" y="372" font-family="Arial, Helvetica, sans-serif" font-size="10.5" font-weight="700" fill="#03210F" text-anchor="middle" letter-spacing="0.5">SHIPPED</text>
  <text x="50" y="400" font-family="Arial, Helvetica, sans-serif" font-size="18" font-weight="700" fill="#FAFAFA">BantayKo</text>
  <text x="50" y="422" font-family="Arial, Helvetica, sans-serif" font-size="12.5" fill="#A1A1AA">AI-assisted personal safety app with 3-layer protection</text>
  <rect x="50" y="438" width="100" height="20" rx="6" fill="#1F1F23" stroke="#2F2F35" stroke-width="1"/>
  <text x="100" y="452" font-family="Arial, Helvetica, sans-serif" font-size="10.5" fill="#D4D4D8" text-anchor="middle">React Native</text>
  <rect x="158" y="438" width="38" height="20" rx="6" fill="#1F1F23" stroke="#2F2F35" stroke-width="1"/>
  <text x="177" y="452" font-family="Arial, Helvetica, sans-serif" font-size="10.5" fill="#D4D4D8" text-anchor="middle">AI</text>

  <!-- Row 2, Col 2: Cinema 3D Portfolio -->
  <rect x="612" y="342" width="564" height="130" rx="10" fill="#16161A" stroke="#27272A" stroke-width="1"/>
  <rect x="612" y="342" width="4" height="130" fill="#F59E0B"/>
  <rect x="638" y="358" width="84" height="20" rx="10" fill="#F59E0B"/>
  <text x="680" y="372" font-family="Arial, Helvetica, sans-serif" font-size="10.5" font-weight="700" fill="#1A0F00" text-anchor="middle" letter-spacing="0.5">BUILDING</text>
  <text x="638" y="400" font-family="Arial, Helvetica, sans-serif" font-size="18" font-weight="700" fill="#FAFAFA">Cinema 3D Portfolio</text>
  <text x="638" y="422" font-family="Arial, Helvetica, sans-serif" font-size="12.5" fill="#A1A1AA">Cinema-themed personal portfolio experience</text>
  <rect x="638" y="438" width="74" height="20" rx="6" fill="#1F1F23" stroke="#2F2F35" stroke-width="1"/>
  <text x="675" y="452" font-family="Arial, Helvetica, sans-serif" font-size="10.5" fill="#D4D4D8" text-anchor="middle">Three.js</text>
  <rect x="720" y="438" width="48" height="20" rx="6" fill="#1F1F23" stroke="#2F2F35" stroke-width="1"/>
  <text x="744" y="452" font-family="Arial, Helvetica, sans-serif" font-size="10.5" fill="#D4D4D8" text-anchor="middle">GSAP</text>
  <rect x="776" y="438" width="108" height="20" rx="6" fill="#1F1F23" stroke="#2F2F35" stroke-width="1"/>
  <text x="830" y="452" font-family="Arial, Helvetica, sans-serif" font-size="10.5" fill="#D4D4D8" text-anchor="middle">Framer Motion</text>
</svg>
